<svg width="272" height="273" viewBox="0 0 272 273" fill="none" xmlns="http://www.w3.org/2000/svg">
<rect y="0.5" width="272" height="272" rx="136" fill="white"/>
<path d="M70.72 146C70.72 146.064 70.848 146.021 71.104 145.872C71.36 145.701 71.584 145.381 71.776 144.912C71.9893 144.421 72.096 143.717 72.096 142.8V127.088C72.096 126.213 71.9893 125.552 71.776 125.104C71.584 124.635 71.36 124.315 71.104 124.144C70.848 123.973 70.72 123.92 70.72 123.984H82.304V127.184C81.92 125.904 80.768 125.264 78.848 125.264H74.4V134.352H79.904C80.3307 134.352 80.6933 134.288 80.992 134.16C81.2907 134.011 81.5147 133.861 81.664 133.712C81.8133 133.563 81.8987 133.467 81.92 133.424V136.528C81.8987 136.485 81.8133 136.389 81.664 136.24C81.5147 136.091 81.2907 135.952 80.992 135.824C80.7147 135.696 80.3627 135.632 79.936 135.632H74.4V144.72H79.392C80.352 144.72 81.1733 144.528 81.856 144.144C82.56 143.739 83.0613 143.227 83.36 142.608L82.784 146H70.72ZM101.072 146C101.456 145.936 101.648 145.744 101.648 145.424C101.648 145.04 101.488 144.613 101.168 144.144C100.848 143.653 100.667 143.376 100.624 143.312L96.1443 136.4L91.1203 143.12C90.8003 143.547 90.5443 143.931 90.3523 144.272C90.1816 144.592 90.0963 144.891 90.0963 145.168C90.0963 145.637 90.4376 145.915 91.1203 146H86.3203C86.3203 146.043 86.4483 145.989 86.7043 145.84C86.9603 145.691 87.3229 145.392 87.7923 144.944C88.2829 144.475 88.8696 143.781 89.5523 142.864L95.3763 135.152L90.2243 127.184C89.6269 126.267 89.0936 125.573 88.6243 125.104C88.1549 124.635 87.7709 124.325 87.4723 124.176C87.1736 124.005 87.0243 123.941 87.0243 123.984H92.3683C91.9629 124.069 91.7603 124.272 91.7603 124.592C91.7603 124.912 91.9949 125.435 92.4643 126.16L96.9123 133.072L101.552 126.928C102.214 126.053 102.544 125.349 102.544 124.816C102.544 124.325 102.224 124.048 101.584 123.984H106.352C106.352 123.963 106.214 124.016 105.936 124.144C105.68 124.251 105.339 124.496 104.912 124.88C104.507 125.243 104.038 125.787 103.504 126.512L97.6803 134.288L102.832 142.288C103.515 143.355 104.123 144.165 104.656 144.72C105.19 145.253 105.616 145.616 105.936 145.808C106.256 145.979 106.416 146.043 106.416 146H101.072ZM124.075 129.936C124.075 131.173 123.776 132.283 123.179 133.264C122.603 134.224 121.771 134.981 120.683 135.536C119.595 136.091 118.315 136.368 116.843 136.368C115.947 136.368 114.987 136.272 113.963 136.08V143.056C113.963 143.888 114.069 144.528 114.283 144.976C114.496 145.403 114.731 145.691 114.987 145.84C115.243 145.989 115.371 146.043 115.371 146H110.283C110.283 146.043 110.411 145.989 110.667 145.84C110.923 145.691 111.147 145.403 111.339 144.976C111.552 144.549 111.659 143.909 111.659 143.056V127.024C111.659 126.171 111.552 125.52 111.339 125.072C111.147 124.624 110.923 124.325 110.667 124.176C110.411 124.005 110.283 123.941 110.283 123.984H116.555C117.643 123.984 118.539 124.059 119.243 124.208C119.947 124.336 120.565 124.539 121.099 124.816C122.059 125.307 122.795 126.021 123.307 126.96C123.819 127.877 124.075 128.869 124.075 129.936ZM121.611 130.352C121.611 128.837 121.141 127.611 120.203 126.672C119.264 125.733 118.016 125.264 116.459 125.264H113.963V134.832C114.88 135.003 115.84 135.088 116.843 135.088C118.336 135.088 119.499 134.661 120.331 133.808C121.184 132.933 121.611 131.781 121.611 130.352ZM129.19 126.96C129.19 126.107 129.083 125.467 128.87 125.04C128.678 124.592 128.454 124.293 128.198 124.144C127.942 123.995 127.814 123.941 127.814 123.984H132.902C132.902 123.941 132.774 123.995 132.518 124.144C132.262 124.293 132.027 124.592 131.814 125.04C131.6 125.467 131.494 126.107 131.494 126.96V144.72H136.742C137.702 144.72 138.523 144.528 139.206 144.144C139.91 143.739 140.411 143.227 140.71 142.608L140.134 146H127.814C127.814 146.064 127.942 146.021 128.198 145.872C128.454 145.701 128.678 145.381 128.87 144.912C129.083 144.421 129.19 143.717 129.19 142.8V126.96ZM142.829 135.248C142.829 132.987 143.309 130.971 144.269 129.2C145.251 127.429 146.616 126.053 148.365 125.072C150.136 124.091 152.173 123.6 154.477 123.6C156.397 123.6 158.189 124.027 159.853 124.88C161.539 125.712 162.883 126.971 163.885 128.656C164.909 130.341 165.421 132.368 165.421 134.736C165.421 136.997 164.931 139.013 163.949 140.784C162.989 142.555 161.624 143.931 159.853 144.912C158.104 145.893 156.077 146.384 153.773 146.384C151.853 146.384 150.051 145.968 148.365 145.136C146.701 144.283 145.357 143.013 144.333 141.328C143.331 139.643 142.829 137.616 142.829 135.248ZM162.861 135.216C162.861 133.275 162.456 131.525 161.645 129.968C160.856 128.389 159.757 127.163 158.349 126.288C156.963 125.392 155.395 124.944 153.645 124.944C152.045 124.944 150.616 125.349 149.357 126.16C148.12 126.971 147.149 128.123 146.445 129.616C145.741 131.088 145.389 132.805 145.389 134.768C145.389 136.709 145.784 138.469 146.573 140.048C147.384 141.605 148.483 142.832 149.869 143.728C151.277 144.603 152.856 145.04 154.605 145.04C156.205 145.04 157.624 144.635 158.861 143.824C160.12 143.013 161.101 141.872 161.805 140.4C162.509 138.907 162.861 137.179 162.861 135.216ZM176.121 134.928C177.102 134.928 177.955 134.704 178.681 134.256C179.406 133.787 179.95 133.189 180.313 132.464C180.697 131.717 180.889 130.939 180.889 130.128C180.889 129.296 180.707 128.517 180.345 127.792C180.003 127.045 179.47 126.437 178.745 125.968C178.019 125.499 177.134 125.264 176.089 125.264H173.369V143.056C173.369 143.909 173.475 144.56 173.689 145.008C173.902 145.435 174.137 145.723 174.393 145.872C174.649 146 174.777 146.043 174.777 146H169.689C169.689 146.043 169.817 145.989 170.073 145.84C170.329 145.691 170.553 145.403 170.745 144.976C170.958 144.549 171.065 143.909 171.065 143.056V127.056C171.065 126.181 170.958 125.52 170.745 125.072C170.553 124.603 170.329 124.293 170.073 124.144C169.817 123.973 169.689 123.92 169.689 123.984H176.025C177.689 123.984 179.054 124.261 180.121 124.816C181.209 125.349 181.987 126.053 182.457 126.928C182.947 127.781 183.193 128.72 183.193 129.744C183.193 130.597 182.99 131.44 182.585 132.272C182.179 133.083 181.593 133.797 180.825 134.416C180.078 135.013 179.203 135.429 178.201 135.664L177.689 135.76L183.321 142.928C184.067 143.76 184.686 144.4 185.177 144.848C185.667 145.296 186.019 145.595 186.233 145.744C186.467 145.893 186.606 145.979 186.649 146H182.905L174.201 134.928H176.121ZM189.533 146C189.533 146.064 189.661 146.021 189.917 145.872C190.173 145.701 190.397 145.381 190.589 144.912C190.802 144.421 190.909 143.717 190.909 142.8V127.088C190.909 126.213 190.802 125.552 190.589 125.104C190.397 124.635 190.173 124.315 189.917 124.144C189.661 123.973 189.533 123.92 189.533 123.984H201.117V127.184C200.733 125.904 199.581 125.264 197.661 125.264H193.213V134.352H198.717C199.143 134.352 199.506 134.288 199.805 134.16C200.103 134.011 200.327 133.861 200.477 133.712C200.626 133.563 200.711 133.467 200.733 133.424V136.528C200.711 136.485 200.626 136.389 200.477 136.24C200.327 136.091 200.103 135.952 199.805 135.824C199.527 135.696 199.175 135.632 198.749 135.632H193.213V144.72H198.205C199.165 144.72 199.986 144.528 200.669 144.144C201.373 143.739 201.874 143.227 202.173 142.608L201.597 146H189.533Z" fill="#0B0D17"/>
</svg>
